<svg xmlns="http://www.w3.org/2000/svg" viewBox="0 0 191.74 56.54"><defs><style>.cls-1{fill:#fc4b3b;stroke-width:2px;}.cls-1,.cls-2{stroke:#000;}.cls-2{fill:#fcec97;stroke-linecap:round;stroke-linejoin:round;stroke-width:1.34px;}.cls-3{fill:#ff8c78;}</style></defs><title>Milorito3</title><g id="Слой_2" data-name="Слой 2"><g id="Слой_1-2" data-name="Слой 1"><path class="cls-1" d="M5.51,21.39A4.31,4.31,0,0,1,7,18.89a4.79,4.79,0,0,1,3.22-1.2,5.07,5.07,0,0,1,3.12,1.06A4.94,4.94,0,0,1,15,21.15l5.66,19h.1l5.66-19a4.94,4.94,0,0,1,1.68-2.4,5.07,5.07,0,0,1,3.12-1.06,4.79,4.79,0,0,1,3.22,1.2,4.3,4.3,0,0,1,1.48,2.5l4.47,26.78a5.66,5.66,0,0,1,.05.82A3.37,3.37,0,0,1,37,52.45c-2.18,0-3.42-1.12-3.74-3.36L30.42,29.55h-.09L24.57,49.66a3.62,3.62,0,0,1-3.84,2.79,3.61,3.61,0,0,1-3.84-2.79L11.13,29.55H11L8.2,49.09q-.48,3.36-3.74,3.36A3.37,3.37,0,0,1,1,49a5.66,5.66,0,0,1,.05-.82Z"/><path class="cls-1" d="M49.67,17.12a3.63,3.63,0,0,1,1.15,2.64,3.77,3.77,0,0,1-1.15,2.78,3.57,3.57,0,0,1-2.73,1.2,3.77,3.77,0,0,1-2.74-1.2,3.89,3.89,0,0,1-1.15-2.78,3.63,3.63,0,0,1,1.15-2.64,3.83,3.83,0,0,1,5.47,0ZM43.48,30.17a4,4,0,0,1,1-2.78,3.47,3.47,0,0,1,5,0,4,4,0,0,1,1,2.78V48.61a4,4,0,0,1-1,2.78,3.47,3.47,0,0,1-5,0,4,4,0,0,1-1-2.78Z"/><path class="cls-1" d="M54.42,21.44a3.79,3.79,0,0,1,1-2.79,4,4,0,0,1,5.18,0,3.75,3.75,0,0,1,1,2.79V45.53h8.55a3.35,3.35,0,0,1,2.68,1.11A3.09,3.09,0,0,1,73.62,49a3.12,3.12,0,0,1-1,2.16,3.29,3.29,0,0,1-2.49,1h-12q-3.75,0-3.75-3.94Z"/><path class="cls-1" d="M126,29.79a3.18,3.18,0,0,1,1.15-2.59,3.55,3.55,0,0,1,2.4-.87q3.36,0,3.36,2.88H133a5.77,5.77,0,0,1,4.85-2.88,3.14,3.14,0,0,1,2.31.92A3.67,3.67,0,0,1,141.25,30,2.33,2.33,0,0,1,140,32.19a12.17,12.17,0,0,1-1.3.58l-1.53.62A16.15,16.15,0,0,0,134.25,35a3.79,3.79,0,0,0-1.3,3V48.61a4,4,0,0,1-1,2.78,3.47,3.47,0,0,1-5,0,4,4,0,0,1-1-2.78Z"/><path class="cls-1" d="M148.21,17.12a3.63,3.63,0,0,1,1.15,2.64,3.77,3.77,0,0,1-1.15,2.78,3.56,3.56,0,0,1-2.73,1.2,3.77,3.77,0,0,1-2.74-1.2,3.89,3.89,0,0,1-1.15-2.78,3.63,3.63,0,0,1,1.15-2.64,3.83,3.83,0,0,1,5.47,0ZM142,30.17a4,4,0,0,1,1-2.78,3.47,3.47,0,0,1,5,0,4,4,0,0,1,1,2.78V48.61a4,4,0,0,1-1,2.78,3.47,3.47,0,0,1-5,0,4,4,0,0,1-1-2.78Z"/><path class="cls-1" d="M154.45,32.67h-1.53a2.68,2.68,0,0,1-3-3,3,3,0,0,1,3-3h1.53V22.49a4,4,0,0,1,1-2.78,3.47,3.47,0,0,1,5,0,4,4,0,0,1,1,2.78v4.13h2q3.31,0,3.31,3t-3.31,3h-2V48.61a4,4,0,0,1-1,2.78,3.47,3.47,0,0,1-5,0,4,4,0,0,1-1-2.78Z"/><path class="cls-1" d="M187.28,30.13a13.5,13.5,0,0,1,3.46,9.31,13.61,13.61,0,0,1-3.41,9.36,12.21,12.21,0,0,1-18,0A13.61,13.61,0,0,1,166,39.44a13.5,13.5,0,0,1,3.46-9.31,11.8,11.8,0,0,1,17.85,0Zm-13.1,4.56a8.38,8.38,0,0,0-1.3,4.75,8.1,8.1,0,0,0,1.35,4.7,4.89,4.89,0,0,0,8.25,0,8.1,8.1,0,0,0,1.35-4.7,8.46,8.46,0,0,0-1.3-4.75,4.93,4.93,0,0,0-8.35,0Z"/><path class="cls-2" d="M114.92.67s1.1,2.35-2,5.87-3.75,2.82-9,3.06S92,7.82,84.31,11.76,73.75,27.92,73.09,28.86,68.27,32,67.33,36.45C66.12,42.2,69.46,46.4,73,48.51s8.84,6.2,18.67,7.14a50.51,50.51,0,0,0,21.56-2.72c5.17-1.76,10.37-2.74,11-10.2.61-6.83-2.91-8.06-4-12-1.25-4.36-1.68-9.88-2.2-10.57-.88-1.17,2.34-1.83,2.64-6.08A15,15,0,0,0,114.92.67Z"/><path class="cls-3" d="M88.57,31.67c-.73,2.34,1.59,9,3.7,8.91a7.16,7.16,0,0,0,6.49-7.08c.16-3.21-3.48-1.77-5.34-2S89.3,29.33,88.57,31.67Z"/><ellipse class="cls-3" cx="114.35" cy="42.73" rx="6.83" ry="5.74" transform="translate(-5.8 64.3) rotate(-30.67)"/><ellipse class="cls-3" cx="75.34" cy="37.94" rx="5.63" ry="6.96" transform="translate(-6.27 59.29) rotate(-41.39)"/><ellipse cx="82.96" cy="26.54" rx="4.41" ry="3.35" transform="translate(25.01 91.57) rotate(-66.03)"/><ellipse cx="107.75" cy="29.92" rx="3.35" ry="4.41" transform="translate(-2.86 46.35) rotate(-23.97)"/></g></g></svg>